<svg xmlns="http://www.w3.org/2000/svg" width="1600" height="1000" viewBox="0 0 1600 1000">
<defs>
<linearGradient id="bg" x1="0" y1="0" x2="1" y2="1"><stop stop-color="#08090d"/><stop offset="1" stop-color="#0b0d13"/></linearGradient>
<linearGradient id="accent" x1="0" y1="0" x2="1" y2="1"><stop stop-color="#ff4f79"/><stop offset="1" stop-color="#7c4dff"/></linearGradient>
<linearGradient id="c1" x1="0" y1="0" x2="1" y2="1"><stop stop-color="#2d76bc"/><stop offset="1" stop-color="#351e7b"/></linearGradient>
<linearGradient id="c2" x1="0" y1="0" x2="1" y2="1"><stop stop-color="#9d345d"/><stop offset="1" stop-color="#2b235a"/></linearGradient>
<linearGradient id="c3" x1="0" y1="0" x2="1" y2="1"><stop stop-color="#e26b41"/><stop offset="1" stop-color="#5d205f"/></linearGradient>
<linearGradient id="c4" x1="0" y1="0" x2="1" y2="1"><stop stop-color="#141a31"/><stop offset="1" stop-color="#dc6d35"/></linearGradient>
<linearGradient id="c5" x1="0" y1="0" x2="1" y2="1"><stop stop-color="#00a7d6"/><stop offset="1" stop-color="#ee2f86"/></linearGradient>
<filter id="shadow"><feDropShadow dx="0" dy="12" stdDeviation="20" flood-opacity=".35"/></filter>
<style>
text{font-family:Inter,Segoe UI,Arial,sans-serif}.muted{fill:#858da0}.small{font-size:12px}.xs{font-size:10px}.label{font-size:10px;font-weight:700;letter-spacing:1.8px;fill:#838b9d}.white{fill:#f6f7fb}.title{font-size:25px;font-weight:700}.cardtitle{font-size:14px;font-weight:700}.chip{font-size:10px;font-weight:700;letter-spacing:.8px}.num{font-size:11px}
</style>
</defs>
<rect width="1600" height="1000" fill="url(#bg)"/>
<circle cx="1500" cy="330" r="260" fill="#e63e6f" opacity=".06"/>
<circle cx="40" cy="680" r="280" fill="#6c4cff" opacity=".05"/>
<rect x="0" y="0" width="1600" height="76" fill="#090b10" opacity=".98"/><line x1="0" y1="76" x2="1600" y2="76" stroke="#1d2230"/>
<rect x="42" y="17" width="42" height="42" rx="13" fill="url(#accent)"/><text x="63" y="46" text-anchor="middle" class="white" font-size="25" font-weight="900">C</text>
<text x="98" y="37" class="white" font-size="18" font-weight="700">Civitai <tspan fill="#ff5d81">RED</tspan></text><text x="98" y="54" class="muted xs" letter-spacing="4">BROWSER</text>
<rect x="310" y="14" width="720" height="48" rx="15" fill="#0d1017" stroke="#222837"/><text x="338" y="44" class="muted" font-size="16">⌕</text><text x="365" y="43" class="muted" font-size="14">Найти модель, LoRA, checkpoint… (от 2 симв.)</text><rect x="952" y="26" width="60" height="24" rx="7" fill="#171b24" stroke="#2a3040"/><text x="982" y="42" text-anchor="middle" class="muted xs">Enter</text>
<rect x="1460" y="18" width="50" height="40" rx="11" fill="#131720" stroke="#252b39"/><text x="1485" y="44" text-anchor="middle" class="white" font-size="13" font-weight="700">EN</text>
<rect x="1520" y="18" width="42" height="40" rx="11" fill="#131720" stroke="#252b39"/><text x="1541" y="44" text-anchor="middle" class="white" font-size="18">⚙</text><rect x="146" y="98" width="250" height="880" rx="22" fill="#10141c" stroke="#232a39" filter="url(#shadow)"/>
<text x="166" y="128" class="label">НАВИГАЦИЯ</text>
<rect x="162" y="144" width="218" height="46" rx="12" fill="#25131e" stroke="#542336"/><rect x="162" y="144" width="3" height="46" rx="1.5" fill="#ff4f79"/><text x="180" y="173" class="white" font-size="14">✦</text><text x="205" y="173" class="white" font-size="14">Обзор</text>
<text x="180" y="221" class="muted" font-size="14">♥</text><text x="205" y="221" class="muted" font-size="14">Избранное</text><rect x="343" y="204" width="24" height="20" rx="7" fill="#1c2230"/><text x="355" y="218" text-anchor="middle" class="muted xs">0</text>
<line x1="162" y1="245" x2="380" y2="245" stroke="#202535"/>
<text x="166" y="278" class="label">ФИЛЬТРЫ</text>
<text x="168" y="312" class="label">ТИП МОДЕЛИ</text><rect x="162" y="326" width="218" height="43" rx="12" fill="#0d1118" stroke="#252b3a"/><text x="176" y="353" class="white small">Все типы</text><text x="360" y="353" class="muted small">⌄</text>
<text x="168" y="402" class="label">БАЗОВАЯ МОДЕЛЬ</text><rect x="162" y="416" width="218" height="43" rx="12" fill="#0d1118" stroke="#252b3a"/><text x="176" y="443" class="white small">Все базовые модели</text><text x="360" y="443" class="muted small">⌄</text>
<text x="168" y="492" class="label">СОРТИРОВКА</text><rect x="162" y="506" width="218" height="43" rx="12" fill="#0d1118" stroke="#252b3a"/><text x="176" y="533" class="white small">Самые высоко оценённые</text><text x="360" y="533" class="muted small">⌄</text>
<text x="168" y="582" class="label">ПЕРИОД</text><rect x="162" y="596" width="218" height="43" rx="12" fill="#0d1118" stroke="#252b3a"/><text x="176" y="623" class="white small">За всё время</text><text x="360" y="623" class="muted small">⌄</text>
<rect x="162" y="660" width="218" height="44" rx="12" fill="#11151d" stroke="#272d3b"/><text x="271" y="687" text-anchor="middle" class="white small">Сбросить фильтры</text>
<line x1="162" y1="905" x2="380" y2="905" stroke="#202535"/><circle cx="173" cy="932" r="5" fill="#40dd99"/><text x="188" y="936" class="white" font-size="11" font-weight="700">API-ключ настроен</text><text x="166" y="957" class="muted xs">Сервер онлайн · 127.0.0.1:3210 · v1.3.1</text><text x="430" y="131" class="label" fill="#ff5b7e">КАТАЛОГ</text><text x="430" y="163" class="white title">Популярные модели</text><rect x="655" y="141" width="98" height="29" rx="10" fill="#11151e" stroke="#252b3a"/><text x="672" y="160" class="white" font-size="14" font-weight="700">24</text><text x="697" y="160" class="muted xs">результатов</text><text x="430" y="184" class="muted" font-size="11">Обновляется только вручную</text><rect x="1370" y="130" width="120" height="40" rx="11" fill="#11161f" stroke="#262d3c"/><text x="1430" y="155" text-anchor="middle" class="white small">↻  Обновить</text><rect x="430" y="210" width="194" height="350" rx="18" fill="#10141c" stroke="#232a39" filter="url(#shadow)"/><rect x="430" y="210" width="194" height="255" rx="16" fill="url(#c1)"/><circle cx="484.32" cy="299.25" r="62.08" fill="none" stroke="#fff" opacity=".09" stroke-width="3"/><circle cx="573.56" cy="368.1" r="44.620000000000005" fill="none" stroke="#fff" opacity=".08" stroke-width="3"/><text x="606" y="447" text-anchor="end" fill="#fff" opacity=".14" font-size="54" font-weight="700">01</text>
 <rect x="440" y="220" width="86" height="25" rx="7" fill="#0b0d12" opacity=".88"/><text x="449" y="237" class="white chip">Checkpoint</text>
 <rect x="440" y="252" width="97" height="25" rx="7" fill="#12101c" stroke="#5a43a0"/><text x="450" y="269" fill="#d8ceff" class="chip">Illustrious</text>
 <rect x="579" y="220" width="34" height="34" rx="11" fill="#0d1016" opacity=".86" stroke="#ffffff22"/><text x="596" y="243" text-anchor="middle" class="white" font-size="15">♥</text>
 <rect x="440" y="432" width="93" height="23" rx="7" fill="#0b0d12" opacity=".88"/><text x="448" y="448" class="white xs">▧ ИЗОБРАЖЕНИЕ</text>
 <text x="443" y="493" class="white cardtitle">Aurora Illustrious</text><text x="443" y="512" class="muted xs">AsterLab</text><text x="443" y="542" class="muted num">⇩ 153K</text><text x="611" y="542" text-anchor="end" class="muted num">♥ 12.5K</text><rect x="640" y="210" width="194" height="350" rx="18" fill="#10141c" stroke="#232a39" filter="url(#shadow)"/><rect x="640" y="210" width="194" height="255" rx="16" fill="url(#c2)"/><circle cx="694.32" cy="299.25" r="62.08" fill="none" stroke="#fff" opacity=".09" stroke-width="3"/><circle cx="783.56" cy="368.1" r="44.620000000000005" fill="none" stroke="#fff" opacity=".08" stroke-width="3"/><text x="816" y="447" text-anchor="end" fill="#fff" opacity=".14" font-size="54" font-weight="700">02</text>
 <rect x="650" y="220" width="53" height="25" rx="7" fill="#0b0d12" opacity=".88"/><text x="659" y="237" class="white chip">LORA</text>
 <rect x="650" y="252" width="76" height="25" rx="7" fill="#12101c" stroke="#5a43a0"/><text x="660" y="269" fill="#d8ceff" class="chip">SDXL 1.0</text>
 <rect x="789" y="220" width="34" height="34" rx="11" fill="#0d1016" opacity=".86" stroke="#ffffff22"/><text x="806" y="243" text-anchor="middle" class="white" font-size="15">♥</text>
 <rect x="650" y="432" width="93" height="23" rx="7" fill="#0b0d12" opacity=".88"/><text x="658" y="448" class="white xs">▧ ИЗОБРАЖЕНИЕ</text>
 <text x="653" y="493" class="white cardtitle">Velvet SDXL</text><text x="653" y="512" class="muted xs">NekoWorks</text><text x="653" y="542" class="muted num">⇩ 149.8K</text><text x="821" y="542" text-anchor="end" class="muted num">♥ 12.3K</text><rect x="850" y="210" width="194" height="350" rx="18" fill="#10141c" stroke="#232a39" filter="url(#shadow)"/><rect x="850" y="210" width="194" height="255" rx="16" fill="url(#c3)"/><circle cx="904.32" cy="299.25" r="62.08" fill="none" stroke="#fff" opacity=".09" stroke-width="3"/><circle cx="993.56" cy="368.1" r="44.620000000000005" fill="none" stroke="#fff" opacity=".08" stroke-width="3"/><text x="1026" y="447" text-anchor="end" fill="#fff" opacity=".14" font-size="54" font-weight="700">03</text>
 <rect x="860" y="220" width="86" height="25" rx="7" fill="#0b0d12" opacity=".88"/><text x="869" y="237" class="white chip">Checkpoint</text>
 <rect x="860" y="252" width="48" height="25" rx="7" fill="#12101c" stroke="#5a43a0"/><text x="870" y="269" fill="#d8ceff" class="chip">Pony</text>
 <rect x="999" y="220" width="34" height="34" rx="11" fill="#0d1016" opacity=".86" stroke="#ffffff22"/><text x="1016" y="243" text-anchor="middle" class="white" font-size="15">♥</text>
 <rect x="860" y="432" width="93" height="23" rx="7" fill="#0b0d12" opacity=".88"/><text x="868" y="448" class="white xs">▧ ИЗОБРАЖЕНИЕ</text>
 <text x="863" y="493" class="white cardtitle">Neon Portrait XL</text><text x="863" y="512" class="muted xs">PixelForge</text><text x="863" y="542" class="muted num">⇩ 146.6K</text><text x="1031" y="542" text-anchor="end" class="muted num">♥ 12.2K</text><rect x="1060" y="210" width="194" height="350" rx="18" fill="#10141c" stroke="#232a39" filter="url(#shadow)"/><rect x="1060" y="210" width="194" height="255" rx="16" fill="url(#c4)"/><circle cx="1114.32" cy="299.25" r="62.08" fill="none" stroke="#fff" opacity=".09" stroke-width="3"/><circle cx="1203.56" cy="368.1" r="44.620000000000005" fill="none" stroke="#fff" opacity=".08" stroke-width="3"/><text x="1236" y="447" text-anchor="end" fill="#fff" opacity=".14" font-size="54" font-weight="700">04</text>
 <rect x="1070" y="220" width="86" height="25" rx="7" fill="#0b0d12" opacity=".88"/><text x="1079" y="237" class="white chip">Checkpoint</text>
 <rect x="1070" y="252" width="76" height="25" rx="7" fill="#12101c" stroke="#5a43a0"/><text x="1080" y="269" fill="#d8ceff" class="chip">Flux.1 D</text>
 <rect x="1209" y="220" width="34" height="34" rx="11" fill="#0d1016" opacity=".86" stroke="#ffffff22"/><text x="1226" y="243" text-anchor="middle" class="white" font-size="15">♥</text>
 <rect x="1070" y="432" width="93" height="23" rx="7" fill="#0b0d12" opacity=".88"/><text x="1078" y="448" class="white xs">▧ ИЗОБРАЖЕНИЕ</text>
 <text x="1073" y="493" class="white cardtitle">Luminous Pony</text><text x="1073" y="512" class="muted xs">MoonStudio</text><text x="1073" y="542" class="muted num">⇩ 143.5K</text><text x="1241" y="542" text-anchor="end" class="muted num">♥ 12K</text><rect x="1270" y="210" width="194" height="350" rx="18" fill="#10141c" stroke="#232a39" filter="url(#shadow)"/><rect x="1270" y="210" width="194" height="255" rx="16" fill="url(#c5)"/><circle cx="1324.32" cy="299.25" r="62.08" fill="none" stroke="#fff" opacity=".09" stroke-width="3"/><circle cx="1413.56" cy="368.1" r="44.620000000000005" fill="none" stroke="#fff" opacity=".08" stroke-width="3"/><text x="1446" y="447" text-anchor="end" fill="#fff" opacity=".14" font-size="54" font-weight="700">05</text>
 <rect x="1280" y="220" width="86" height="25" rx="7" fill="#0b0d12" opacity=".88"/><text x="1289" y="237" class="white chip">Checkpoint</text>
 <rect x="1280" y="252" width="97" height="25" rx="7" fill="#12101c" stroke="#5a43a0"/><text x="1290" y="269" fill="#d8ceff" class="chip">Illustrious</text>
 <rect x="1419" y="220" width="34" height="34" rx="11" fill="#0d1016" opacity=".86" stroke="#ffffff22"/><text x="1436" y="243" text-anchor="middle" class="white" font-size="15">♥</text>
 <rect x="1280" y="432" width="93" height="23" rx="7" fill="#0b0d12" opacity=".88"/><text x="1288" y="448" class="white xs">▧ ИЗОБРАЖЕНИЕ</text>
 <text x="1283" y="493" class="white cardtitle">Crimson Flux</text><text x="1283" y="512" class="muted xs">AsterLab</text><text x="1283" y="542" class="muted num">⇩ 140.3K</text><text x="1451" y="542" text-anchor="end" class="muted num">♥ 11.8K</text><rect x="430" y="582" width="194" height="350" rx="18" fill="#10141c" stroke="#232a39" filter="url(#shadow)"/><rect x="430" y="582" width="194" height="255" rx="16" fill="url(#c2)"/><circle cx="484.32" cy="671.25" r="62.08" fill="none" stroke="#fff" opacity=".09" stroke-width="3"/><circle cx="573.56" cy="740.1" r="44.620000000000005" fill="none" stroke="#fff" opacity=".08" stroke-width="3"/><text x="606" y="819" text-anchor="end" fill="#fff" opacity=".14" font-size="54" font-weight="700">06</text>
 <rect x="440" y="592" width="53" height="25" rx="7" fill="#0b0d12" opacity=".88"/><text x="449" y="609" class="white chip">LORA</text>
 <rect x="440" y="624" width="76" height="25" rx="7" fill="#12101c" stroke="#5a43a0"/><text x="450" y="641" fill="#d8ceff" class="chip">SDXL 1.0</text>
 <rect x="579" y="592" width="34" height="34" rx="11" fill="#0d1016" opacity=".86" stroke="#ffffff22"/><text x="596" y="615" text-anchor="middle" class="white" font-size="15">♥</text>
 <rect x="440" y="804" width="93" height="23" rx="7" fill="#0b0d12" opacity=".88"/><text x="448" y="820" class="white xs">▧ ИЗОБРАЖЕНИЕ</text>
 <text x="443" y="865" class="white cardtitle">Celestial LoRA</text><text x="443" y="884" class="muted xs">NekoWorks</text><text x="443" y="914" class="muted num">⇩ 137.1K</text><text x="611" y="914" text-anchor="end" class="muted num">♥ 11.6K</text><rect x="640" y="582" width="194" height="350" rx="18" fill="#10141c" stroke="#232a39" filter="url(#shadow)"/><rect x="640" y="582" width="194" height="255" rx="16" fill="url(#c3)"/><circle cx="694.32" cy="671.25" r="62.08" fill="none" stroke="#fff" opacity=".09" stroke-width="3"/><circle cx="783.56" cy="740.1" r="44.620000000000005" fill="none" stroke="#fff" opacity=".08" stroke-width="3"/><text x="816" y="819" text-anchor="end" fill="#fff" opacity=".14" font-size="54" font-weight="700">07</text>
 <rect x="650" y="592" width="86" height="25" rx="7" fill="#0b0d12" opacity=".88"/><text x="659" y="609" class="white chip">Checkpoint</text>
 <rect x="650" y="624" width="48" height="25" rx="7" fill="#12101c" stroke="#5a43a0"/><text x="660" y="641" fill="#d8ceff" class="chip">Pony</text>
 <rect x="789" y="592" width="34" height="34" rx="11" fill="#0d1016" opacity=".86" stroke="#ffffff22"/><text x="806" y="615" text-anchor="middle" class="white" font-size="15">♥</text>
 <rect x="650" y="804" width="93" height="23" rx="7" fill="#0b0d12" opacity=".88"/><text x="658" y="820" class="white xs">▧ ИЗОБРАЖЕНИЕ</text>
 <text x="653" y="865" class="white cardtitle">Midnight Anime</text><text x="653" y="884" class="muted xs">PixelForge</text><text x="653" y="914" class="muted num">⇩ 133.9K</text><text x="821" y="914" text-anchor="end" class="muted num">♥ 11.5K</text><rect x="850" y="582" width="194" height="350" rx="18" fill="#10141c" stroke="#232a39" filter="url(#shadow)"/><rect x="850" y="582" width="194" height="255" rx="16" fill="url(#c4)"/><circle cx="904.32" cy="671.25" r="62.08" fill="none" stroke="#fff" opacity=".09" stroke-width="3"/><circle cx="993.56" cy="740.1" r="44.620000000000005" fill="none" stroke="#fff" opacity=".08" stroke-width="3"/><text x="1026" y="819" text-anchor="end" fill="#fff" opacity=".14" font-size="54" font-weight="700">08</text>
 <rect x="860" y="592" width="86" height="25" rx="7" fill="#0b0d12" opacity=".88"/><text x="869" y="609" class="white chip">Checkpoint</text>
 <rect x="860" y="624" width="76" height="25" rx="7" fill="#12101c" stroke="#5a43a0"/><text x="870" y="641" fill="#d8ceff" class="chip">Flux.1 D</text>
 <rect x="999" y="592" width="34" height="34" rx="11" fill="#0d1016" opacity=".86" stroke="#ffffff22"/><text x="1016" y="615" text-anchor="middle" class="white" font-size="15">♥</text>
 <rect x="860" y="804" width="93" height="23" rx="7" fill="#0b0d12" opacity=".88"/><text x="868" y="820" class="white xs">▧ ИЗОБРАЖЕНИЕ</text>
 <text x="863" y="865" class="white cardtitle">Prism Character</text><text x="863" y="884" class="muted xs">MoonStudio</text><text x="863" y="914" class="muted num">⇩ 130.8K</text><text x="1031" y="914" text-anchor="end" class="muted num">♥ 11.3K</text><rect x="1060" y="582" width="194" height="350" rx="18" fill="#10141c" stroke="#232a39" filter="url(#shadow)"/><rect x="1060" y="582" width="194" height="255" rx="16" fill="url(#c5)"/><circle cx="1114.32" cy="671.25" r="62.08" fill="none" stroke="#fff" opacity=".09" stroke-width="3"/><circle cx="1203.56" cy="740.1" r="44.620000000000005" fill="none" stroke="#fff" opacity=".08" stroke-width="3"/><text x="1236" y="819" text-anchor="end" fill="#fff" opacity=".14" font-size="54" font-weight="700">09</text>
 <rect x="1070" y="592" width="86" height="25" rx="7" fill="#0b0d12" opacity=".88"/><text x="1079" y="609" class="white chip">Checkpoint</text>
 <rect x="1070" y="624" width="97" height="25" rx="7" fill="#12101c" stroke="#5a43a0"/><text x="1080" y="641" fill="#d8ceff" class="chip">Illustrious</text>
 <rect x="1209" y="592" width="34" height="34" rx="11" fill="#0d1016" opacity=".86" stroke="#ffffff22"/><text x="1226" y="615" text-anchor="middle" class="white" font-size="15">♥</text>
 <rect x="1070" y="804" width="93" height="23" rx="7" fill="#0b0d12" opacity=".88"/><text x="1078" y="820" class="white xs">▧ ИЗОБРАЖЕНИЕ</text>
 <text x="1073" y="865" class="white cardtitle">Dreamline XL</text><text x="1073" y="884" class="muted xs">AsterLab</text><text x="1073" y="914" class="muted num">⇩ 127.6K</text><text x="1241" y="914" text-anchor="end" class="muted num">♥ 11.1K</text><rect x="1270" y="582" width="194" height="350" rx="18" fill="#10141c" stroke="#232a39" filter="url(#shadow)"/><rect x="1270" y="582" width="194" height="255" rx="16" fill="url(#c1)"/><circle cx="1324.32" cy="671.25" r="62.08" fill="none" stroke="#fff" opacity=".09" stroke-width="3"/><circle cx="1413.56" cy="740.1" r="44.620000000000005" fill="none" stroke="#fff" opacity=".08" stroke-width="3"/><text x="1446" y="819" text-anchor="end" fill="#fff" opacity=".14" font-size="54" font-weight="700">10</text>
 <rect x="1280" y="592" width="53" height="25" rx="7" fill="#0b0d12" opacity=".88"/><text x="1289" y="609" class="white chip">LORA</text>
 <rect x="1280" y="624" width="76" height="25" rx="7" fill="#12101c" stroke="#5a43a0"/><text x="1290" y="641" fill="#d8ceff" class="chip">SDXL 1.0</text>
 <rect x="1419" y="592" width="34" height="34" rx="11" fill="#0d1016" opacity=".86" stroke="#ffffff22"/><text x="1436" y="615" text-anchor="middle" class="white" font-size="15">♥</text>
 <rect x="1280" y="804" width="93" height="23" rx="7" fill="#0b0d12" opacity=".88"/><text x="1288" y="820" class="white xs">▧ ИЗОБРАЖЕНИЕ</text>
 <text x="1283" y="865" class="white cardtitle">Violet Style</text><text x="1283" y="884" class="muted xs">NekoWorks</text><text x="1283" y="914" class="muted num">⇩ 124.4K</text><text x="1451" y="914" text-anchor="end" class="muted num">♥ 10.9K</text></svg>